<svg width="146" height="56" viewBox="0 0 146 56" fill="none" xmlns="http://www.w3.org/2000/svg">
<g filter="url(#filter0_d_11_148)">
<path d="M15.5973 24.096C14.9146 24.096 14.3119 23.9627 13.7893 23.696C13.2773 23.4293 12.8453 23.072 12.4933 22.624C12.1413 22.1653 11.8746 21.6533 11.6933 21.088C11.5226 20.5227 11.4373 19.9413 11.4373 19.344C11.4373 18.704 11.5386 18.064 11.7413 17.424C11.9439 16.784 12.2319 16.1707 12.6053 15.584C12.9786 14.9973 13.4266 14.48 13.9493 14.032C14.4826 13.584 15.0799 13.232 15.7413 12.976C16.4133 12.7093 17.1333 12.576 17.9013 12.576C18.9466 12.576 19.7786 12.8107 20.3973 13.28C21.0159 13.7493 21.4213 14.3413 21.6133 15.056L20.0933 15.968C19.9653 15.488 19.7733 15.12 19.5173 14.864C19.2613 14.608 18.9679 14.432 18.6373 14.336C18.3173 14.24 17.9759 14.192 17.6133 14.192C16.8773 14.192 16.2373 14.3467 15.6933 14.656C15.1599 14.9547 14.7119 15.3547 14.3493 15.856C13.9866 16.3467 13.7146 16.8853 13.5333 17.472C13.3626 18.048 13.2773 18.6133 13.2773 19.168C13.2773 19.7653 13.3786 20.32 13.5813 20.832C13.7839 21.3333 14.0826 21.7333 14.4773 22.032C14.8826 22.3307 15.3733 22.48 15.9493 22.48C16.3013 22.48 16.6693 22.416 17.0533 22.288C17.4373 22.1493 17.8106 21.9467 18.1733 21.68C18.5359 21.4027 18.8506 21.0453 19.1173 20.608L20.4293 21.456C20.0666 22.0427 19.6133 22.5333 19.0693 22.928C18.5253 23.3227 17.9493 23.616 17.3413 23.808C16.7439 24 16.1626 24.096 15.5973 24.096ZM23.0576 15.632H24.8176L23.0256 24H21.2656L23.0576 15.632ZM23.7456 12.32H25.5056L25.1056 14.256H23.3456L23.7456 12.32ZM26.8858 15.632H28.4698L28.1178 17.312C28.3951 16.9387 28.7258 16.6187 29.1098 16.352C29.4938 16.0747 29.9098 15.8613 30.3578 15.712C30.8058 15.5627 31.2591 15.488 31.7178 15.488C32.1871 15.488 32.5551 15.5733 32.8218 15.744C33.0884 15.9147 33.2804 16.1493 33.3978 16.448C33.5151 16.736 33.5738 17.0667 33.5738 17.44C33.5738 17.664 33.5524 17.8987 33.5098 18.144C33.4778 18.3893 33.4351 18.64 33.3818 18.896L32.3098 24H30.5498L31.5418 19.312C31.5844 19.1093 31.6164 18.928 31.6378 18.768C31.6591 18.5973 31.6698 18.4373 31.6698 18.288C31.6698 17.8613 31.5791 17.552 31.3978 17.36C31.2271 17.1573 30.9764 17.056 30.6458 17.056C30.3364 17.056 30.0058 17.1413 29.6538 17.312C29.3124 17.4827 28.9871 17.7173 28.6778 18.016C28.3684 18.304 28.1178 18.64 27.9258 19.024L26.8538 24H25.0938L26.8858 15.632ZM37.9453 24.16C37.2413 24.16 36.6386 24.0053 36.1373 23.696C35.6359 23.3867 35.2519 22.9653 34.9853 22.432C34.7293 21.8987 34.6013 21.296 34.6013 20.624C34.6013 19.9307 34.7293 19.28 34.9853 18.672C35.2413 18.0533 35.6039 17.504 36.0733 17.024C36.5426 16.544 37.0866 16.1707 37.7053 15.904C38.3346 15.6267 39.0173 15.488 39.7533 15.488C40.3293 15.488 40.8306 15.5787 41.2573 15.76C41.6946 15.9307 42.0306 16.1867 42.2653 16.528C42.5106 16.8587 42.6333 17.28 42.6333 17.792C42.6333 18.6453 42.2439 19.296 41.4653 19.744C40.6973 20.192 39.5239 20.416 37.9453 20.416C37.6466 20.416 37.3106 20.4107 36.9373 20.4C36.5639 20.3787 36.1426 20.3467 35.6733 20.304L35.9133 19.168C36.3399 19.1893 36.7186 19.2107 37.0493 19.232C37.3799 19.2533 37.6893 19.264 37.9773 19.264C38.7346 19.264 39.3319 19.2053 39.7693 19.088C40.2066 18.9707 40.5213 18.8053 40.7133 18.592C40.9053 18.368 41.0013 18.1173 41.0013 17.84C41.0013 17.5947 40.9426 17.3973 40.8253 17.248C40.7079 17.0987 40.5426 16.9867 40.3293 16.912C40.1159 16.8267 39.8599 16.784 39.5613 16.784C39.0919 16.784 38.6599 16.8907 38.2653 17.104C37.8706 17.3067 37.5293 17.5947 37.2413 17.968C36.9639 18.3307 36.7453 18.7413 36.5853 19.2C36.4359 19.6587 36.3613 20.144 36.3613 20.656C36.3613 21.0613 36.4253 21.4347 36.5533 21.776C36.6919 22.1067 36.8999 22.3733 37.1773 22.576C37.4653 22.768 37.8226 22.864 38.2493 22.864C38.7079 22.864 39.1506 22.752 39.5773 22.528C40.0039 22.2933 40.3399 21.9787 40.5853 21.584L41.9773 22.016C41.7106 22.432 41.3639 22.8053 40.9373 23.136C40.5106 23.456 40.0359 23.7067 39.5133 23.888C39.0013 24.0693 38.4786 24.16 37.9453 24.16ZM40.5053 14.368L39.3853 14.08L40.6013 12.32H42.2812L40.5053 14.368ZM5.32788 31.64H12.5279L12.1919 33.224H6.79988L6.07988 36.616H10.5919L10.2719 38.104H5.75988L4.71988 43H2.91188L5.32788 31.64ZM13.4966 43.128C13.0166 43.128 12.6433 43.0107 12.3766 42.776C12.11 42.5413 11.9766 42.2053 11.9766 41.768C11.9766 41.6827 11.982 41.592 11.9926 41.496C12.0033 41.4 12.0193 41.3093 12.0406 41.224L14.1366 31.32H15.8806L13.9286 40.584C13.918 40.6373 13.9073 40.6907 13.8966 40.744C13.886 40.7973 13.8806 40.8507 13.8806 40.904C13.8806 41.352 14.11 41.576 14.5686 41.576C14.686 41.576 14.8246 41.5547 14.9846 41.512C15.1553 41.4693 15.31 41.4213 15.4486 41.368L15.3846 42.744C15.118 42.8507 14.8033 42.9413 14.4406 43.016C14.0886 43.0907 13.774 43.128 13.4966 43.128ZM19.6238 43.16C19.0051 43.16 18.4718 43.0053 18.0238 42.696C17.5758 42.3867 17.2344 41.9707 16.9998 41.448C16.7651 40.9253 16.6478 40.344 16.6478 39.704C16.6478 39.0213 16.7704 38.3707 17.0158 37.752C17.2611 37.1227 17.5971 36.568 18.0238 36.088C18.4611 35.5973 18.9571 35.208 19.5118 34.92C20.0664 34.632 20.6478 34.488 21.2558 34.488C21.8638 34.488 22.3758 34.6533 22.7918 34.984C23.2078 35.3147 23.4958 35.7253 23.6558 36.216L23.9918 34.648H25.7678L24.4237 40.92C24.4131 40.9733 24.4024 41.0213 24.3918 41.064C24.3918 41.096 24.3918 41.128 24.3918 41.16C24.3918 41.3733 24.5144 41.4853 24.7598 41.496L24.4398 43C24.2904 43.0213 24.1571 43.0373 24.0398 43.048C23.9224 43.0693 23.8158 43.08 23.7198 43.08C23.3891 43.08 23.1331 43.0107 22.9518 42.872C22.7704 42.7227 22.6798 42.5147 22.6798 42.248C22.6798 42.1947 22.6798 42.1307 22.6798 42.056C22.6904 41.9813 22.7011 41.896 22.7118 41.8C22.7331 41.704 22.7598 41.5973 22.7918 41.48C22.3758 42.0133 21.8798 42.4293 21.3038 42.728C20.7384 43.016 20.1784 43.16 19.6238 43.16ZM20.3918 41.656C20.6051 41.656 20.8291 41.6133 21.0638 41.528C21.3091 41.4427 21.5438 41.3253 21.7678 41.176C22.0024 41.0267 22.2158 40.8507 22.4078 40.648C22.5998 40.4453 22.7544 40.2267 22.8718 39.992L23.3198 37.8C23.2771 37.4587 23.1651 37.1547 22.9838 36.888C22.8024 36.6107 22.5784 36.392 22.3118 36.232C22.0558 36.072 21.7784 35.992 21.4798 35.992C21.0744 35.992 20.6904 36.0933 20.3278 36.296C19.9758 36.488 19.6611 36.7493 19.3838 37.08C19.1171 37.4107 18.9038 37.7787 18.7438 38.184C18.5838 38.5893 18.5038 39 18.5038 39.416C18.5038 39.8427 18.5784 40.2213 18.7278 40.552C18.8878 40.8827 19.1064 41.1493 19.3838 41.352C19.6718 41.5547 20.0078 41.656 20.3918 41.656ZM29.1155 43.16C28.4435 43.16 27.8142 43.0533 27.2275 42.84C26.6408 42.6267 26.1608 42.312 25.7875 41.896L26.7315 40.776C27.1155 41.128 27.5208 41.3947 27.9475 41.576C28.3848 41.7573 28.8382 41.848 29.3075 41.848C29.6702 41.848 29.9848 41.7947 30.2515 41.688C30.5288 41.5813 30.7422 41.432 30.8915 41.24C31.0408 41.048 31.1155 40.824 31.1155 40.568C31.1155 40.2373 30.9768 40.0027 30.6995 39.864C30.4222 39.7253 30.0008 39.576 29.4355 39.416C28.8915 39.2453 28.4435 39.0853 28.0915 38.936C27.7395 38.7867 27.4782 38.6 27.3075 38.376C27.1475 38.152 27.0675 37.8533 27.0675 37.48C27.0675 36.8933 27.2275 36.376 27.5475 35.928C27.8782 35.48 28.3208 35.128 28.8755 34.872C29.4302 34.616 30.0542 34.488 30.7475 34.488C31.3768 34.488 31.9262 34.584 32.3955 34.776C32.8755 34.968 33.2808 35.2453 33.6115 35.608L32.6355 36.664C32.3368 36.3547 32.0222 36.1307 31.6915 35.992C31.3715 35.8533 31.0088 35.784 30.6035 35.784C30.2515 35.784 29.9368 35.832 29.6595 35.928C29.3928 36.024 29.1795 36.168 29.0195 36.36C28.8702 36.552 28.7955 36.7867 28.7955 37.064C28.7955 37.352 28.9022 37.56 29.1155 37.688C29.3288 37.816 29.7075 37.9547 30.2515 38.104C30.8275 38.264 31.3128 38.4347 31.7075 38.616C32.1022 38.7973 32.3955 39.016 32.5875 39.272C32.7902 39.528 32.8915 39.864 32.8915 40.28C32.8915 40.824 32.7368 41.3147 32.4275 41.752C32.1182 42.1893 31.6808 42.536 31.1155 42.792C30.5502 43.0373 29.8835 43.16 29.1155 43.16ZM36.2925 31.32H38.0525L36.9965 36.312C37.4232 35.7467 37.9298 35.304 38.5165 34.984C39.1138 34.6533 39.7165 34.488 40.3245 34.488C40.8045 34.488 41.1885 34.5787 41.4765 34.76C41.7645 34.9307 41.9672 35.1707 42.0845 35.48C42.2018 35.7787 42.2605 36.1253 42.2605 36.52C42.2605 36.7333 42.2445 36.9573 42.2125 37.192C42.1912 37.416 42.1538 37.6507 42.1005 37.896L41.0285 43H39.2685L40.2605 38.312C40.3032 38.1307 40.3298 37.9653 40.3405 37.816C40.3618 37.656 40.3725 37.5067 40.3725 37.368C40.3725 36.9307 40.2765 36.6053 40.0845 36.392C39.8925 36.168 39.6205 36.056 39.2685 36.056C38.9805 36.056 38.6658 36.1413 38.3245 36.312C37.9938 36.4827 37.6738 36.7173 37.3645 37.016C37.0658 37.304 36.8258 37.64 36.6445 38.024L35.5725 43H33.8125L36.2925 31.32Z" fill="#1E1E1E"/>
<path d="M51.6057 45C51.9577 43.4 52.3897 41.992 52.9017 40.776C53.3818 39.528 53.9898 38.424 54.7258 37.464C55.4938 36.504 56.3898 35.64 57.4138 34.872C58.4698 34.104 59.7018 33.368 61.1098 32.664C63.0298 31.704 64.5498 30.936 65.6698 30.36C66.7898 29.784 67.6058 29.32 68.1178 28.968C68.6618 28.584 69.0138 28.232 69.1738 27.912C69.3338 27.592 69.4138 27.224 69.4138 26.808C69.4138 26.392 69.3338 26.056 69.1738 25.8C69.0138 25.544 68.7738 25.352 68.4538 25.224C68.1658 25.064 67.7978 24.984 67.3498 24.984C66.9018 24.984 66.4378 25.048 65.9578 25.176C65.4778 25.304 64.9818 25.512 64.4698 25.8C63.9898 26.088 63.4618 26.456 62.8858 26.904C62.3418 27.32 61.7498 27.832 61.1098 28.44L56.7898 21.672C57.5578 21 58.4538 20.392 59.4778 19.848C60.5338 19.272 61.6698 18.792 62.8858 18.408C64.1338 17.992 65.4138 17.672 66.7258 17.448C68.0378 17.224 69.3338 17.112 70.6138 17.112C72.6618 17.112 74.3578 17.4 75.7018 17.976C77.0778 18.52 78.1018 19.304 78.7738 20.328C79.4778 21.352 79.8298 22.584 79.8298 24.024C79.8298 25.208 79.6698 26.28 79.3498 27.24C79.0618 28.168 78.6458 29 78.1018 29.736C77.5578 30.472 76.9018 31.16 76.1338 31.8C75.3658 32.408 74.5018 33.016 73.5418 33.624C73.1258 33.88 72.7098 34.136 72.2938 34.392C71.8778 34.648 71.4458 34.92 70.9978 35.208C70.5818 35.464 70.1338 35.736 69.6538 36.024C69.2058 36.28 68.7418 36.552 68.2618 36.84H77.7178L75.9898 45H51.6057ZM88.3741 52.152C86.0061 52.152 83.9581 51.672 82.2301 50.712C80.5341 49.784 79.3501 48.472 78.6781 46.776L84.8701 41.016C85.5101 42.008 86.2941 42.792 87.2221 43.368C88.1821 43.912 89.1421 44.184 90.1021 44.184C90.7421 44.184 91.3021 44.072 91.7821 43.848C92.2941 43.624 92.7261 43.32 93.0781 42.936C93.4621 42.52 93.7501 42.04 93.9421 41.496C94.1341 40.952 94.2301 40.36 94.2301 39.72C94.2301 38.952 94.0381 38.328 93.6541 37.848C93.3021 37.368 92.7741 37.128 92.0701 37.128C91.4941 37.128 90.9341 37.288 90.3901 37.608C89.8781 37.896 89.4461 38.296 89.0941 38.808H81.3181C81.7981 37.624 82.2621 36.456 82.7101 35.304C83.1901 34.12 83.6541 32.936 84.1021 31.752C84.5501 30.568 84.9981 29.384 85.4461 28.2C85.9261 27.016 86.3901 25.832 86.8381 24.648C87.2861 23.464 87.7501 22.296 88.2301 21.144C88.7101 19.96 89.1901 18.776 89.6701 17.592H105.942L104.166 25.896H94.4701L93.3181 29.592C93.2541 29.592 93.3661 29.56 93.6541 29.496C93.9421 29.4 94.4221 29.352 95.0941 29.352C96.8861 29.352 98.4381 29.736 99.7501 30.504C101.062 31.24 102.07 32.264 102.774 33.576C103.478 34.888 103.83 36.424 103.83 38.184C103.83 40.2 103.43 42.056 102.63 43.752C101.862 45.448 100.774 46.92 99.3661 48.168C97.9581 49.416 96.3101 50.392 94.4221 51.096C92.5661 51.8 90.5501 52.152 88.3741 52.152Z" fill="#1E1E1E"/>
</g>
<defs>
<filter id="filter0_d_11_148" x="0" y="0" width="145.281" height="58" filterUnits="userSpaceOnUse" color-interpolation-filters="sRGB">
<feFlood flood-opacity="0" result="BackgroundImageFix"/>
<feColorMatrix in="SourceAlpha" type="matrix" values="0 0 0 0 0 0 0 0 0 0 0 0 0 0 0 0 0 0 127 0" result="hardAlpha"/>
<feOffset dx="-2" dy="2"/>
<feComposite in2="hardAlpha" operator="out"/>
<feColorMatrix type="matrix" values="0 0 0 0 1 0 0 0 0 0.909804 0 0 0 0 0 0 0 0 1 0"/>
<feBlend mode="normal" in2="BackgroundImageFix" result="effect1_dropShadow_11_148"/>
<feBlend mode="normal" in="SourceGraphic" in2="effect1_dropShadow_11_148" result="shape"/>
</filter>
</defs>
</svg>
