<svg width="105" height="56" viewBox="0 0 105 56" fill="none" xmlns="http://www.w3.org/2000/svg">
<path d="M13.5973 24.096C12.9146 24.096 12.3119 23.9627 11.7893 23.696C11.2773 23.4293 10.8453 23.072 10.4933 22.624C10.1413 22.1653 9.87458 21.6533 9.69325 21.088C9.52258 20.5227 9.43725 19.9413 9.43725 19.344C9.43725 18.704 9.53858 18.064 9.74125 17.424C9.94392 16.784 10.2319 16.1707 10.6053 15.584C10.9786 14.9973 11.4266 14.48 11.9493 14.032C12.4826 13.584 13.0799 13.232 13.7413 12.976C14.4133 12.7093 15.1333 12.576 15.9013 12.576C16.9466 12.576 17.7786 12.8107 18.3973 13.28C19.0159 13.7493 19.4213 14.3413 19.6133 15.056L18.0933 15.968C17.9653 15.488 17.7733 15.12 17.5173 14.864C17.2613 14.608 16.9679 14.432 16.6373 14.336C16.3173 14.24 15.9759 14.192 15.6133 14.192C14.8773 14.192 14.2373 14.3467 13.6933 14.656C13.1599 14.9547 12.7119 15.3547 12.3493 15.856C11.9866 16.3467 11.7146 16.8853 11.5333 17.472C11.3626 18.048 11.2773 18.6133 11.2773 19.168C11.2773 19.7653 11.3786 20.32 11.5813 20.832C11.7839 21.3333 12.0826 21.7333 12.4773 22.032C12.8826 22.3307 13.3733 22.48 13.9493 22.48C14.3013 22.48 14.6693 22.416 15.0533 22.288C15.4373 22.1493 15.8106 21.9467 16.1733 21.68C16.5359 21.4027 16.8506 21.0453 17.1173 20.608L18.4293 21.456C18.0666 22.0427 17.6133 22.5333 17.0693 22.928C16.5253 23.3227 15.9493 23.616 15.3413 23.808C14.7439 24 14.1626 24.096 13.5973 24.096ZM21.0576 15.632H22.8176L21.0256 24H19.2656L21.0576 15.632ZM21.7456 12.32H23.5056L23.1056 14.256H21.3456L21.7456 12.32ZM24.8858 15.632H26.4698L26.1178 17.312C26.3951 16.9387 26.7258 16.6187 27.1098 16.352C27.4938 16.0747 27.9098 15.8613 28.3578 15.712C28.8058 15.5627 29.2591 15.488 29.7178 15.488C30.1871 15.488 30.5551 15.5733 30.8218 15.744C31.0884 15.9147 31.2804 16.1493 31.3978 16.448C31.5151 16.736 31.5738 17.0667 31.5738 17.44C31.5738 17.664 31.5524 17.8987 31.5098 18.144C31.4778 18.3893 31.4351 18.64 31.3818 18.896L30.3098 24H28.5498L29.5418 19.312C29.5844 19.1093 29.6164 18.928 29.6378 18.768C29.6591 18.5973 29.6698 18.4373 29.6698 18.288C29.6698 17.8613 29.5791 17.552 29.3978 17.36C29.2271 17.1573 28.9764 17.056 28.6458 17.056C28.3364 17.056 28.0058 17.1413 27.6538 17.312C27.3124 17.4827 26.9871 17.7173 26.6778 18.016C26.3684 18.304 26.1178 18.64 25.9258 19.024L24.8538 24H23.0938L24.8858 15.632ZM35.9453 24.16C35.2413 24.16 34.6386 24.0053 34.1373 23.696C33.6359 23.3867 33.2519 22.9653 32.9853 22.432C32.7293 21.8987 32.6013 21.296 32.6013 20.624C32.6013 19.9307 32.7293 19.28 32.9853 18.672C33.2413 18.0533 33.6039 17.504 34.0733 17.024C34.5426 16.544 35.0866 16.1707 35.7053 15.904C36.3346 15.6267 37.0173 15.488 37.7533 15.488C38.3293 15.488 38.8306 15.5787 39.2573 15.76C39.6946 15.9307 40.0306 16.1867 40.2653 16.528C40.5106 16.8587 40.6333 17.28 40.6333 17.792C40.6333 18.6453 40.2439 19.296 39.4653 19.744C38.6973 20.192 37.5239 20.416 35.9453 20.416C35.6466 20.416 35.3106 20.4107 34.9373 20.4C34.5639 20.3787 34.1426 20.3467 33.6733 20.304L33.9133 19.168C34.3399 19.1893 34.7186 19.2107 35.0493 19.232C35.3799 19.2533 35.6893 19.264 35.9773 19.264C36.7346 19.264 37.3319 19.2053 37.7693 19.088C38.2066 18.9707 38.5213 18.8053 38.7133 18.592C38.9053 18.368 39.0013 18.1173 39.0013 17.84C39.0013 17.5947 38.9426 17.3973 38.8253 17.248C38.7079 17.0987 38.5426 16.9867 38.3293 16.912C38.1159 16.8267 37.8599 16.784 37.5613 16.784C37.0919 16.784 36.6599 16.8907 36.2653 17.104C35.8706 17.3067 35.5293 17.5947 35.2413 17.968C34.9639 18.3307 34.7453 18.7413 34.5853 19.2C34.4359 19.6587 34.3613 20.144 34.3613 20.656C34.3613 21.0613 34.4253 21.4347 34.5533 21.776C34.6919 22.1067 34.8999 22.3733 35.1773 22.576C35.4653 22.768 35.8226 22.864 36.2493 22.864C36.7079 22.864 37.1506 22.752 37.5773 22.528C38.0039 22.2933 38.3399 21.9787 38.5853 21.584L39.9773 22.016C39.7106 22.432 39.3639 22.8053 38.9373 23.136C38.5106 23.456 38.0359 23.7067 37.5133 23.888C37.0013 24.0693 36.4786 24.16 35.9453 24.16ZM38.5053 14.368L37.3853 14.08L38.6013 12.32H40.2812L38.5053 14.368ZM3.32788 31.64H10.5279L10.1919 33.224H4.79988L4.07988 36.616H8.59188L8.27188 38.104H3.75988L2.71988 43H0.911875L3.32788 31.64ZM11.4966 43.128C11.0166 43.128 10.6433 43.0107 10.3766 42.776C10.11 42.5413 9.97663 42.2053 9.97663 41.768C9.97663 41.6827 9.98196 41.592 9.99263 41.496C10.0033 41.4 10.0193 41.3093 10.0406 41.224L12.1366 31.32H13.8806L11.9286 40.584C11.918 40.6373 11.9073 40.6907 11.8966 40.744C11.886 40.7973 11.8806 40.8507 11.8806 40.904C11.8806 41.352 12.11 41.576 12.5686 41.576C12.686 41.576 12.8246 41.5547 12.9846 41.512C13.1553 41.4693 13.31 41.4213 13.4486 41.368L13.3846 42.744C13.118 42.8507 12.8033 42.9413 12.4406 43.016C12.0886 43.0907 11.774 43.128 11.4966 43.128ZM17.6238 43.16C17.0051 43.16 16.4718 43.0053 16.0238 42.696C15.5758 42.3867 15.2344 41.9707 14.9998 41.448C14.7651 40.9253 14.6478 40.344 14.6478 39.704C14.6478 39.0213 14.7704 38.3707 15.0158 37.752C15.2611 37.1227 15.5971 36.568 16.0238 36.088C16.4611 35.5973 16.9571 35.208 17.5118 34.92C18.0664 34.632 18.6478 34.488 19.2558 34.488C19.8638 34.488 20.3758 34.6533 20.7918 34.984C21.2078 35.3147 21.4958 35.7253 21.6558 36.216L21.9918 34.648H23.7678L22.4237 40.92C22.4131 40.9733 22.4024 41.0213 22.3918 41.064C22.3918 41.096 22.3918 41.128 22.3918 41.16C22.3918 41.3733 22.5144 41.4853 22.7598 41.496L22.4398 43C22.2904 43.0213 22.1571 43.0373 22.0398 43.048C21.9224 43.0693 21.8158 43.08 21.7198 43.08C21.3891 43.08 21.1331 43.0107 20.9518 42.872C20.7704 42.7227 20.6798 42.5147 20.6798 42.248C20.6798 42.1947 20.6798 42.1307 20.6798 42.056C20.6904 41.9813 20.7011 41.896 20.7118 41.8C20.7331 41.704 20.7598 41.5973 20.7918 41.48C20.3758 42.0133 19.8798 42.4293 19.3038 42.728C18.7384 43.016 18.1784 43.16 17.6238 43.16ZM18.3918 41.656C18.6051 41.656 18.8291 41.6133 19.0638 41.528C19.3091 41.4427 19.5438 41.3253 19.7678 41.176C20.0024 41.0267 20.2158 40.8507 20.4078 40.648C20.5998 40.4453 20.7544 40.2267 20.8718 39.992L21.3198 37.8C21.2771 37.4587 21.1651 37.1547 20.9838 36.888C20.8024 36.6107 20.5784 36.392 20.3118 36.232C20.0558 36.072 19.7784 35.992 19.4798 35.992C19.0744 35.992 18.6904 36.0933 18.3278 36.296C17.9758 36.488 17.6611 36.7493 17.3838 37.08C17.1171 37.4107 16.9038 37.7787 16.7438 38.184C16.5838 38.5893 16.5038 39 16.5038 39.416C16.5038 39.8427 16.5784 40.2213 16.7278 40.552C16.8878 40.8827 17.1064 41.1493 17.3838 41.352C17.6718 41.5547 18.0078 41.656 18.3918 41.656ZM27.1155 43.16C26.4435 43.16 25.8142 43.0533 25.2275 42.84C24.6408 42.6267 24.1608 42.312 23.7875 41.896L24.7315 40.776C25.1155 41.128 25.5208 41.3947 25.9475 41.576C26.3848 41.7573 26.8382 41.848 27.3075 41.848C27.6702 41.848 27.9848 41.7947 28.2515 41.688C28.5288 41.5813 28.7422 41.432 28.8915 41.24C29.0408 41.048 29.1155 40.824 29.1155 40.568C29.1155 40.2373 28.9768 40.0027 28.6995 39.864C28.4222 39.7253 28.0008 39.576 27.4355 39.416C26.8915 39.2453 26.4435 39.0853 26.0915 38.936C25.7395 38.7867 25.4782 38.6 25.3075 38.376C25.1475 38.152 25.0675 37.8533 25.0675 37.48C25.0675 36.8933 25.2275 36.376 25.5475 35.928C25.8782 35.48 26.3208 35.128 26.8755 34.872C27.4302 34.616 28.0542 34.488 28.7475 34.488C29.3768 34.488 29.9262 34.584 30.3955 34.776C30.8755 34.968 31.2808 35.2453 31.6115 35.608L30.6355 36.664C30.3368 36.3547 30.0222 36.1307 29.6915 35.992C29.3715 35.8533 29.0088 35.784 28.6035 35.784C28.2515 35.784 27.9368 35.832 27.6595 35.928C27.3928 36.024 27.1795 36.168 27.0195 36.36C26.8702 36.552 26.7955 36.7867 26.7955 37.064C26.7955 37.352 26.9022 37.56 27.1155 37.688C27.3288 37.816 27.7075 37.9547 28.2515 38.104C28.8275 38.264 29.3128 38.4347 29.7075 38.616C30.1022 38.7973 30.3955 39.016 30.5875 39.272C30.7902 39.528 30.8915 39.864 30.8915 40.28C30.8915 40.824 30.7368 41.3147 30.4275 41.752C30.1182 42.1893 29.6808 42.536 29.1155 42.792C28.5502 43.0373 27.8835 43.16 27.1155 43.16ZM34.2925 31.32H36.0525L34.9965 36.312C35.4232 35.7467 35.9298 35.304 36.5165 34.984C37.1138 34.6533 37.7165 34.488 38.3245 34.488C38.8045 34.488 39.1885 34.5787 39.4765 34.76C39.7645 34.9307 39.9672 35.1707 40.0845 35.48C40.2018 35.7787 40.2605 36.1253 40.2605 36.52C40.2605 36.7333 40.2445 36.9573 40.2125 37.192C40.1912 37.416 40.1538 37.6507 40.1005 37.896L39.0285 43H37.2685L38.2605 38.312C38.3032 38.1307 38.3298 37.9653 38.3405 37.816C38.3618 37.656 38.3725 37.5067 38.3725 37.368C38.3725 36.9307 38.2765 36.6053 38.0845 36.392C37.8925 36.168 37.6205 36.056 37.2685 36.056C36.9805 36.056 36.6658 36.1413 36.3245 36.312C35.9938 36.4827 35.6738 36.7173 35.3645 37.016C35.0658 37.304 34.8258 37.64 34.6445 38.024L33.5725 43H31.8125L34.2925 31.32Z" fill="white"/>
<path d="M49.6057 45C49.9577 43.4 50.3897 41.992 50.9017 40.776C51.3818 39.528 51.9898 38.424 52.7258 37.464C53.4938 36.504 54.3898 35.64 55.4138 34.872C56.4698 34.104 57.7018 33.368 59.1098 32.664C61.0298 31.704 62.5498 30.936 63.6698 30.36C64.7898 29.784 65.6058 29.32 66.1178 28.968C66.6618 28.584 67.0138 28.232 67.1738 27.912C67.3338 27.592 67.4138 27.224 67.4138 26.808C67.4138 26.392 67.3338 26.056 67.1738 25.8C67.0138 25.544 66.7738 25.352 66.4538 25.224C66.1658 25.064 65.7978 24.984 65.3498 24.984C64.9018 24.984 64.4378 25.048 63.9578 25.176C63.4778 25.304 62.9818 25.512 62.4698 25.8C61.9898 26.088 61.4618 26.456 60.8858 26.904C60.3418 27.32 59.7498 27.832 59.1098 28.44L54.7898 21.672C55.5578 21 56.4538 20.392 57.4778 19.848C58.5338 19.272 59.6698 18.792 60.8858 18.408C62.1338 17.992 63.4138 17.672 64.7258 17.448C66.0378 17.224 67.3338 17.112 68.6138 17.112C70.6618 17.112 72.3578 17.4 73.7018 17.976C75.0778 18.52 76.1018 19.304 76.7738 20.328C77.4778 21.352 77.8298 22.584 77.8298 24.024C77.8298 25.208 77.6698 26.28 77.3498 27.24C77.0618 28.168 76.6458 29 76.1018 29.736C75.5578 30.472 74.9018 31.16 74.1338 31.8C73.3658 32.408 72.5018 33.016 71.5418 33.624C71.1258 33.88 70.7098 34.136 70.2938 34.392C69.8778 34.648 69.4458 34.92 68.9978 35.208C68.5818 35.464 68.1338 35.736 67.6538 36.024C67.2058 36.28 66.7418 36.552 66.2618 36.84H75.7178L73.9898 45H49.6057ZM86.3741 52.152C84.0061 52.152 81.9581 51.672 80.2301 50.712C78.5341 49.784 77.3501 48.472 76.6781 46.776L82.8701 41.016C83.5101 42.008 84.2941 42.792 85.2221 43.368C86.1821 43.912 87.1421 44.184 88.1021 44.184C88.7421 44.184 89.3021 44.072 89.7821 43.848C90.2941 43.624 90.7261 43.32 91.0781 42.936C91.4621 42.52 91.7501 42.04 91.9421 41.496C92.1341 40.952 92.2301 40.36 92.2301 39.72C92.2301 38.952 92.0381 38.328 91.6541 37.848C91.3021 37.368 90.7741 37.128 90.0701 37.128C89.4941 37.128 88.9341 37.288 88.3901 37.608C87.8781 37.896 87.4461 38.296 87.0941 38.808H79.3181C79.7981 37.624 80.2621 36.456 80.7101 35.304C81.1901 34.12 81.6541 32.936 82.1021 31.752C82.5501 30.568 82.9981 29.384 83.4461 28.2C83.9261 27.016 84.3901 25.832 84.8381 24.648C85.2861 23.464 85.7501 22.296 86.2301 21.144C86.7101 19.96 87.1901 18.776 87.6701 17.592H103.942L102.166 25.896H92.4701L91.3181 29.592C91.2541 29.592 91.3661 29.56 91.6541 29.496C91.9421 29.4 92.4221 29.352 93.0941 29.352C94.8861 29.352 96.4381 29.736 97.7501 30.504C99.0621 31.24 100.07 32.264 100.774 33.576C101.478 34.888 101.83 36.424 101.83 38.184C101.83 40.2 101.43 42.056 100.63 43.752C99.8621 45.448 98.7741 46.92 97.3661 48.168C95.9581 49.416 94.3101 50.392 92.4221 51.096C90.5661 51.8 88.5501 52.152 86.3741 52.152Z" fill="white"/>
</svg>
