<svg xmlns="http://www.w3.org/2000/svg" version="1.1" xmlns:xlink="http://www.w3.org/1999/xlink" xmlns:svgjs="http://svgjs.dev/svgjs" width="1000" height="1000"><g clip-path="url(#SvgjsClipPath1104)"><rect width="1000" height="1000" fill="#ffe800"></rect><g transform="matrix(14.545454545454545,0,0,14.545454545454545,100,238.1818181818182)"><svg xmlns="http://www.w3.org/2000/svg" version="1.1" xmlns:xlink="http://www.w3.org/1999/xlink" xmlns:svgjs="http://svgjs.dev/svgjs" width="55" height="36"><svg width="55" height="36" viewBox="0 0 55 36" fill="none" xmlns="http://www.w3.org/2000/svg">
<path d="M0.60575 28C0.95775 26.4 1.38975 24.992 1.90175 23.776C2.38175 22.528 2.98975 21.424 3.72575 20.464C4.49375 19.504 5.38975 18.64 6.41375 17.872C7.46975 17.104 8.70175 16.368 10.1098 15.664C12.0298 14.704 13.5498 13.936 14.6698 13.36C15.7898 12.784 16.6058 12.32 17.1178 11.968C17.6618 11.584 18.0138 11.232 18.1738 10.912C18.3338 10.592 18.4138 10.224 18.4138 9.808C18.4138 9.392 18.3338 9.056 18.1738 8.8C18.0138 8.544 17.7738 8.352 17.4538 8.224C17.1658 8.064 16.7978 7.984 16.3498 7.984C15.9018 7.984 15.4378 8.048 14.9578 8.176C14.4778 8.304 13.9818 8.512 13.4698 8.8C12.9898 9.088 12.4618 9.456 11.8858 9.904C11.3418 10.32 10.7498 10.832 10.1098 11.44L5.78975 4.672C6.55775 4 7.45375 3.392 8.47775 2.848C9.53375 2.272 10.6698 1.792 11.8858 1.408C13.1338 0.991999 14.4138 0.671999 15.7258 0.448C17.0378 0.223999 18.3338 0.111999 19.6138 0.111999C21.6618 0.111999 23.3578 0.399999 24.7018 0.975999C26.0778 1.52 27.1018 2.304 27.7738 3.328C28.4778 4.352 28.8298 5.584 28.8298 7.024C28.8298 8.208 28.6698 9.28 28.3498 10.24C28.0618 11.168 27.6458 12 27.1018 12.736C26.5578 13.472 25.9018 14.16 25.1338 14.8C24.3658 15.408 23.5018 16.016 22.5418 16.624C22.1258 16.88 21.7098 17.136 21.2938 17.392C20.8778 17.648 20.4458 17.92 19.9978 18.208C19.5818 18.464 19.1338 18.736 18.6538 19.024C18.2058 19.28 17.7418 19.552 17.2618 19.84H26.7178L24.9898 28H0.60575ZM37.3741 35.152C35.0061 35.152 32.9581 34.672 31.2301 33.712C29.5341 32.784 28.3501 31.472 27.6781 29.776L33.8701 24.016C34.5101 25.008 35.2941 25.792 36.2221 26.368C37.1821 26.912 38.1421 27.184 39.1021 27.184C39.7421 27.184 40.3021 27.072 40.7821 26.848C41.2941 26.624 41.7261 26.32 42.0781 25.936C42.4621 25.52 42.7501 25.04 42.9421 24.496C43.1341 23.952 43.2301 23.36 43.2301 22.72C43.2301 21.952 43.0381 21.328 42.6541 20.848C42.3021 20.368 41.7741 20.128 41.0701 20.128C40.4941 20.128 39.9341 20.288 39.3901 20.608C38.8781 20.896 38.4461 21.296 38.0941 21.808H30.3181C30.7981 20.624 31.2621 19.456 31.7101 18.304C32.1901 17.12 32.6541 15.936 33.1021 14.752C33.5501 13.568 33.9981 12.384 34.4461 11.2C34.9261 10.016 35.3901 8.832 35.8381 7.648C36.2861 6.464 36.7501 5.296 37.2301 4.144C37.7101 2.96 38.1901 1.776 38.6701 0.591998H54.9421L53.1661 8.896H43.4701L42.3181 12.592C42.2541 12.592 42.3661 12.56 42.6541 12.496C42.9421 12.4 43.4221 12.352 44.0941 12.352C45.8861 12.352 47.4381 12.736 48.7501 13.504C50.0621 14.24 51.0701 15.264 51.7741 16.576C52.4781 17.888 52.8301 19.424 52.8301 21.184C52.8301 23.2 52.4301 25.056 51.6301 26.752C50.8621 28.448 49.7741 29.92 48.3661 31.168C46.9581 32.416 45.3101 33.392 43.4221 34.096C41.5661 34.8 39.5501 35.152 37.3741 35.152Z" fill="#1E1E1E"></path>
</svg></svg></g></g><defs><clipPath id="SvgjsClipPath1104"><rect width="1000" height="1000" x="0" y="0" rx="500" ry="500"></rect></clipPath></defs></svg>